# xmcd
#
# Track frame offsets:
#	150
#	11857
#	19328
#	24979
#	32812
#	37820
#	52387
#	66435
#	73442
#	78868
#	84319
#	89750
#	95174
#	108860
#	118976
#	128716
#	133824
#	140917
#	146877
#	152814
#	158743
#	170460
#	174863
#	188023
#	194789
#	199854
#	213914
#	223078
#	228948
#	237489
#	242920
#	248383
#	259862
#	265068
#	271075
#	276313
#	281519
#	286747
#	291953
#	305352
#	314010
#	325830
#	330868
#	338051
#	343945
#
# Disc length: 4713
#
# Revision: 1
# Processed by: cddbd v1.5.1PL0 Copyright (c) Steve Scherf et al.
# Submitted via: CDex 1.51
# Normalized: r0:TRMNUM
#
DISCID=bb12672d
DTITLE=Hinario Liturgico e Miria - Lit T Comum Ano A 2a19 dom e sl miria
DYEAR=2005
DGENRE=Religioso
TTITLE0=Entr 2 a 5 Toda a terra te adore
TTITLE1=Salm 2 e 3 dom Hin
TTITLE2=salmo 2 dom miria
TTITLE3=salmo 3 dom miria
TTITLE4=Aclama 2 a 6 domingo
TTITLE5=Ofert 2 a 5 De maos estendidas
TTITLE6=Comunh 2e3 dom Cantico de Zacarias
TTITLE7=Salmo 4 a 7 dom hinario
TTITLE8=salmo 4 dom miria
TTITLE9=salmo 5 dom miria
TTITLE10=salmo 6 dom miria
TTITLE11=salmo 7 dom miria
TTITLE12=Comunh 4 a 10 dom Felizes os Pobres
TTITLE13=Ent 6 a 9 Se a rocha q me abriga
TTITLE14=Ofer 6 a 9 A vos senhor apresentamos
TTITLE15=Aclamacao 7 a 9 dom
TTITLE16=Salmo 8 a 10 dom Hinario
TTITLE17=salmo 8 dom miria
TTITLE18=salmo 9 dom miria
TTITLE19=salmo 10 dom miria
TTITLE20=Entra 10 a 13 dom O senhor e minha luz
TTITLE21=Aclama 10 a 13 domingo
TTITLE22=Ofert 10 a 15 Bendito seja
TTITLE23=Salmo 11 Hinario Nos somos o povo
TTITLE24=Salmo 11 dom miria.mp3
TTITLE25=Comunh 11 a 14 Vem senhor vem curar
TTITLE26=Salmo 12 Hinario Atendei-me
TTITLE27=salmo 12 dom miria
TTITLE28=Salm 13 e 14 dom hin
TTITLE29=salmo 13 dom miria
TTITLE30=salmo 14 dom miria
TTITLE31=Entra 14 a 16 No meio da tua casa
TTITLE32=Aclama 14 a 17 domingo
TTITLE33=Salm 15 a 18 dom hin
TTITLE34=salmo 15 dom miria
TTITLE35=salmo 16 dom miria
TTITLE36=salmo 17 dom miria
TTITLE37=salmo 18 dom miria
TTITLE38=Comunh 15 a 18Terra boa e aquele q ouviu
TTITLE39=Ofert 16 a 19 A mesa santa
TTITLE40=Entra 17 a 19 Acolhe o oprimido
TTITLE41=Aclama 18 e 19 domingo
TTITLE42=Salm 19 Mostrai-nos o senhor
TTITLE43=salmo 19 dom miria
TTITLE44=Comunh 19 dom E bom estarmos juntos
EXTD=YEAR: 2005
EXTT0=
EXTT1=
EXTT2=
EXTT3=
EXTT4=
EXTT5=
EXTT6=
EXTT7=
EXTT8=
EXTT9=
EXTT10=
EXTT11=
EXTT12=
EXTT13=
EXTT14=
EXTT15=
EXTT16=
EXTT17=
EXTT18=
EXTT19=
EXTT20=
EXTT21=
EXTT22=
EXTT23=
EXTT24=
EXTT25=
EXTT26=
EXTT27=
EXTT28=
EXTT29=
EXTT30=
EXTT31=
EXTT32=
EXTT33=
EXTT34=
EXTT35=
EXTT36=
EXTT37=
EXTT38=
EXTT39=
EXTT40=
EXTT41=
EXTT42=
EXTT43=
EXTT44=
PLAYORDER=
